<svg width="324" height="211" viewBox="0 0 324 211" fill="none" xmlns="http://www.w3.org/2000/svg">
<rect x="0.5" y="0.661133" width="322.578" height="197.994" rx="14.5" fill="white" stroke="#D8D8D8"/>
<mask id="mask0" mask-type="alpha" maskUnits="userSpaceOnUse" x="0" y="0" width="324" height="200">
<rect x="0.922424" y="0.661133" width="322.578" height="197.994" rx="14.5" fill="white" stroke="white"/>
</mask>
<g mask="url(#mask0)">
<path opacity="0.6" d="M239.794 182.66C232.953 182.162 227.684 163.028 220.682 160.397C213.681 157.766 218.37 173.061 205.22 170.553C194.947 168.594 192.638 141.878 185.675 146.938C178.713 151.998 169.97 155.54 159.94 153.617C149.911 151.694 154.273 166.934 145.559 152.403C136.845 137.872 133.827 155.236 125.123 155.236C116.418 155.236 120.876 181.49 110.174 175.475C99.472 169.461 93.7099 179.094 85.0067 179.625C77.7994 180.064 75.7333 167.494 66.621 170.169C57.5087 172.844 56.9264 167.582 47.3506 167.582C38.8996 167.582 33.9914 185.188 22.5619 183.976C11.1325 182.764 0.422424 179.119 0.422424 179.119V199.155H324V157.564C324 157.564 320.626 162.432 314.539 162.219C308.451 162.006 310.557 172.338 300.157 173.047C289.758 173.755 287.613 156.387 275.747 152.403C263.882 148.418 261.841 170.616 253.229 168.999C244.617 167.382 246.635 183.158 239.794 182.66Z" fill="#0032E3"/>
<path opacity="0.4" d="M230.567 157.647C234.072 147.725 238.656 118.646 256.588 122.866C274.519 127.085 275.059 164.945 299.731 166.313C323.229 167.616 323.981 162.654 324 162.179V162.142C324 162.142 324.001 162.155 324 162.179V199.156H0.422424V156.62C0.422424 156.62 0.707107 170.077 15.4628 171.901C30.2185 173.726 31.9776 183.809 40.4651 183.809C50.1996 183.809 50.5147 174.258 63.3851 177.796C76.2556 181.335 74.6419 172.388 81.7212 171.901C90.8322 171.275 92.452 143.997 111.498 148.866C130.543 153.734 126.618 136.664 136.325 136.664C146.032 136.664 137.532 152.649 155.872 153.883C174.211 155.118 166.392 180.34 182.839 180.34C194.915 180.34 199.847 172.494 211.961 174.911C224.075 177.328 228.508 163.473 230.567 157.647Z" fill="#0032E3"/>
<path opacity="0.2" d="M235.4 122.531C228.559 121.842 234.185 152.587 221.954 151.335C209.722 150.083 211.539 159.437 205.22 159.634C199.162 159.824 193.221 148.538 186.258 155.53C179.296 162.521 173.091 133.123 162.751 142.333C152.41 151.542 144.23 150.067 135.516 129.989C126.802 109.911 126.84 130.347 119.499 127.984C112.158 125.621 110.01 150.644 99.308 142.333C88.6061 134.022 89.9178 164.444 81.2146 165.178C74.0073 165.785 75.7333 155.408 66.621 159.104C57.5087 162.8 58.092 151.335 48.5163 151.335C40.0653 151.335 31.5362 161.77 20.1067 160.094C8.67727 158.419 0.422424 171.47 0.422424 171.47V199.155H324V141.687C324 141.687 323.634 155.824 317.546 155.53C311.459 155.235 304.718 177.159 299.204 168.254C293.69 159.348 284.249 127.197 272.383 121.692C260.517 116.186 264.763 99.8766 256.151 97.6418C247.539 95.407 242.24 123.219 235.4 122.531Z" fill="#0032E3"/>
</g>
<line x1="-4.26941e-08" y1="10.3828" x2="323.578" y2="10.3828" stroke="#D8D8D8"/>
<path d="M18.0858 23.0657H16.997C16.9556 22.7873 16.8363 22.5677 16.6391 22.4069C16.4419 22.2462 16.1958 22.1658 15.9008 22.1658C15.5014 22.1658 15.184 22.3125 14.9487 22.6058C14.7134 22.8975 14.5957 23.3051 14.5957 23.8288C14.5957 24.3608 14.7126 24.7709 14.9462 25.0593C15.1816 25.3476 15.4973 25.4918 15.8933 25.4918C16.1833 25.4918 16.4269 25.4164 16.6241 25.2656C16.823 25.1148 16.9473 24.9043 16.997 24.6342L18.0858 24.6392C18.0626 24.8281 18.0129 25.0104 17.9366 25.1861C17.8621 25.3617 17.7602 25.5266 17.6309 25.6807C17.5033 25.8332 17.355 25.9658 17.1859 26.0785C17.0169 26.1911 16.8197 26.2806 16.5943 26.3469C16.3689 26.4116 16.1295 26.4439 15.8759 26.4439C15.5345 26.4439 15.2188 26.385 14.9288 26.2674C14.6405 26.1481 14.3902 25.979 14.1781 25.7603C13.9677 25.5415 13.8028 25.2673 13.6834 24.9375C13.5641 24.606 13.5045 24.2365 13.5045 23.8288C13.5045 23.4211 13.565 23.0516 13.6859 22.7201C13.8069 22.3887 13.9735 22.1136 14.1856 21.8949C14.3994 21.6761 14.6504 21.5079 14.9388 21.3902C15.2271 21.2726 15.5395 21.2138 15.8759 21.2138C16.1692 21.2138 16.4427 21.256 16.6962 21.3405C16.9514 21.4234 17.1752 21.5427 17.3674 21.6985C17.5613 21.8543 17.7204 22.049 17.8447 22.2826C17.9706 22.5147 18.051 22.7757 18.0858 23.0657ZM18.6977 26.3743V22.5561H19.7244V23.2223H19.7642C19.8321 22.9903 19.9473 22.8121 20.1097 22.6878C20.2721 22.5635 20.4627 22.5014 20.6814 22.5014C20.7991 22.5014 20.9101 22.5138 21.0145 22.5387V23.4783C20.8968 23.4402 20.7477 23.4211 20.5671 23.4211C20.3317 23.4211 20.1379 23.4949 19.9854 23.6424C19.8329 23.7899 19.7567 23.9804 19.7567 24.2141V26.3743H18.6977ZM22.192 27.7986C21.9219 27.7986 21.6998 27.763 21.5258 27.6917L21.7644 26.8988C21.8953 26.9402 22.0072 26.9617 22.1 26.9634C22.1928 26.9651 22.2773 26.9402 22.3536 26.8888C22.4314 26.8391 22.4944 26.7579 22.5425 26.6452L22.6046 26.4836L21.2349 22.5561H22.3486L23.1391 25.3601H23.1788L23.9768 22.5561L25.0979 22.5611L23.6139 26.7869C23.3785 27.4614 22.9046 27.7986 22.192 27.7986ZM25.4998 27.8061V22.5561H26.5438V23.1974H26.591C26.6308 23.1112 26.678 23.0309 26.7327 22.9563C26.7891 22.8817 26.8595 22.8088 26.944 22.7375C27.0302 22.6663 27.1354 22.6099 27.2597 22.5685C27.3857 22.5271 27.5249 22.5064 27.6773 22.5064C27.8895 22.5064 28.0875 22.5478 28.2714 22.6307C28.457 22.7135 28.6211 22.8345 28.7636 22.9936C28.9061 23.1527 29.018 23.359 29.0992 23.6125C29.1821 23.8661 29.2235 24.152 29.2235 24.4701C29.2235 24.7817 29.1837 25.0634 29.1042 25.3153C29.0246 25.5656 28.9144 25.7719 28.7736 25.9343C28.6344 26.0967 28.4711 26.221 28.2839 26.3072C28.0966 26.3933 27.8936 26.4364 27.6748 26.4364C27.5274 26.4364 27.3915 26.4165 27.2672 26.3768C27.1445 26.3386 27.0401 26.2856 26.954 26.2177C26.8678 26.1497 26.7957 26.0785 26.7377 26.0039C26.6797 25.9293 26.6308 25.8489 26.591 25.7628H26.5587V27.8061H25.4998ZM26.7476 23.6498C26.6068 23.8487 26.5364 24.1205 26.5364 24.4652C26.5364 24.8099 26.6068 25.0841 26.7476 25.288C26.8902 25.4918 27.0874 25.5937 27.3393 25.5937C27.5928 25.5937 27.79 25.491 27.9309 25.2855C28.0717 25.08 28.1422 24.8066 28.1422 24.4652C28.1422 24.1255 28.0726 23.8545 27.9334 23.6523C27.7942 23.4501 27.5961 23.3491 27.3393 23.3491C27.0857 23.3491 26.8885 23.4493 26.7476 23.6498ZM31.8204 22.5561V23.3515H31.102V25.201C31.102 25.3385 31.1326 25.4355 31.1939 25.4918C31.2553 25.5465 31.3439 25.5738 31.4599 25.5738C31.513 25.5738 31.6008 25.5622 31.7234 25.539L31.89 26.327C31.7093 26.3867 31.5179 26.4198 31.3157 26.4265C30.923 26.443 30.6123 26.3577 30.3836 26.1704C30.1549 25.9832 30.0414 25.7064 30.043 25.3402V23.3515H29.521V22.5561H30.043V21.6413H31.102V22.5561H31.8204ZM35.0536 26.2027C34.7685 26.3668 34.4354 26.4488 34.0543 26.4488C33.6731 26.4488 33.34 26.3668 33.055 26.2027C32.77 26.0387 32.552 25.8083 32.4012 25.5117C32.2504 25.2134 32.175 24.8695 32.175 24.4801C32.175 23.8852 32.3441 23.4079 32.6821 23.0483C33.0219 22.687 33.4792 22.5064 34.0543 22.5064C34.6293 22.5064 35.0859 22.687 35.424 23.0483C35.7637 23.4079 35.9336 23.8852 35.9336 24.4801C35.9336 24.8695 35.8582 25.2134 35.7073 25.5117C35.5565 25.8083 35.3386 26.0387 35.0536 26.2027ZM34.0593 25.6285C34.3145 25.6285 34.5109 25.5225 34.6484 25.3103C34.7876 25.0966 34.8572 24.8173 34.8572 24.4726C34.8572 24.1279 34.7876 23.8487 34.6484 23.6349C34.5109 23.4211 34.3145 23.3143 34.0593 23.3143C33.8007 23.3143 33.6011 23.4211 33.4602 23.6349C33.321 23.847 33.2514 24.1263 33.2514 24.4726C33.2514 24.8173 33.321 25.0966 33.4602 25.3103C33.6011 25.5225 33.8007 25.6285 34.0593 25.6285Z" fill="black"/>
<rect x="195.583" y="22.8911" width="24.0782" height="0.858565" fill="#C4C4C4"/>
<rect x="15.6297" y="110.806" width="24.0782" height="0.858565" fill="#C4C4C4"/>
<rect x="15.6297" y="115.098" width="24.0782" height="0.858565" fill="#C4C4C4"/>
<rect x="15.6297" y="119.046" width="24.0782" height="0.85305" fill="#C4C4C4"/>
<path d="M234.023 23.7488H258.102V22.8902H234.023V23.7488Z" fill="#C4C4C4"/>
<rect width="24.0782" height="0.858565" transform="matrix(1 0 0 -1 272.042 23.7488)" fill="#C4C4C4"/>
<g filter="url(#filter0_d)">
<ellipse cx="163.479" cy="91.1242" rx="39.5215" ry="38.3156" fill="white"/>
</g>
<path fill-rule="evenodd" clip-rule="evenodd" d="M160.623 98.6898L160.735 98.597L169.104 91.5915C169.388 91.3545 169.564 90.9991 169.564 90.6025C169.564 90.2058 169.383 89.8504 169.104 89.6134L160.751 82.613L160.612 82.4945C160.479 82.407 160.318 82.3555 160.147 82.3555C159.682 82.3555 159.302 82.7367 159.302 83.2106V97.9841C159.302 98.458 159.682 98.8392 160.147 98.8392C160.324 98.8392 160.489 98.7825 160.623 98.6898Z" fill="#001B36"/>
<mask id="mask1" mask-type="alpha" maskUnits="userSpaceOnUse" x="159" y="82" width="11" height="17">
<path fill-rule="evenodd" clip-rule="evenodd" d="M160.623 98.6898L160.735 98.597L169.104 91.5915C169.388 91.3545 169.564 90.9991 169.564 90.6025C169.564 90.2058 169.383 89.8504 169.104 89.6134L160.751 82.613L160.612 82.4945C160.479 82.407 160.318 82.3555 160.147 82.3555C159.682 82.3555 159.302 82.7367 159.302 83.2106V97.9841C159.302 98.458 159.682 98.8392 160.147 98.8392C160.324 98.8392 160.489 98.7825 160.623 98.6898Z" fill="white"/>
</mask>
<g mask="url(#mask1)">
<rect x="155.737" y="82.3555" width="17" height="16" fill="#001B36"/>
</g>
<ellipse cx="310.271" cy="23.5345" rx="4.85789" ry="4.93196" fill="#C4C4C4"/>
<path d="M14.2787 76.0815H15.7666L17.5457 79.2989H17.6167L19.3959 76.0815H20.8838L18.2382 80.6412V83.3542H16.9243V80.6412L14.2787 76.0815ZM24.3051 83.1128C23.9097 83.3448 23.4492 83.4608 22.9237 83.4608C22.3981 83.4608 21.9364 83.3448 21.5387 83.1128C21.1434 82.8784 20.8391 82.5493 20.6261 82.1256C20.4154 81.6994 20.31 81.207 20.31 80.6483C20.31 80.0896 20.4154 79.5971 20.6261 79.171C20.8391 78.7449 21.1434 78.4146 21.5387 78.1802C21.9364 77.9459 22.3981 77.8287 22.9237 77.8287C23.4492 77.8287 23.9097 77.9459 24.3051 78.1802C24.7028 78.4146 25.007 78.7449 25.2177 79.171C25.4308 79.5971 25.5373 80.0896 25.5373 80.6483C25.5373 81.207 25.4308 81.6994 25.2177 82.1256C25.007 82.5493 24.7028 82.8784 24.3051 83.1128ZM22.9308 82.431C23.2125 82.431 23.4528 82.3505 23.6516 82.1895C23.8505 82.0285 23.9973 81.8166 24.092 81.5538C24.1867 81.2887 24.234 80.9856 24.234 80.6447C24.234 80.3038 24.1867 80.0008 24.092 79.7356C23.9997 79.4705 23.8529 79.2562 23.6516 79.0929C23.4528 78.9295 23.2125 78.8479 22.9308 78.8479C22.7153 78.8479 22.5224 78.8952 22.3519 78.9899C22.1838 79.0822 22.0465 79.2101 21.94 79.3734C21.8335 79.5368 21.7518 79.7262 21.695 79.9416C21.6405 80.157 21.6133 80.3914 21.6133 80.6447C21.6133 80.9856 21.6606 81.2887 21.7553 81.5538C21.85 81.8166 21.998 82.0285 22.1992 82.1895C22.4005 82.3505 22.6443 82.431 22.9308 82.431ZM29.905 81.0602V77.8997H31.1905V83.3542H29.944V82.3848H29.8872C29.7594 82.702 29.5522 82.9553 29.2657 83.1447C28.9817 83.3318 28.6419 83.4253 28.2466 83.4253C27.6997 83.4253 27.2594 83.2442 26.9255 82.8819C26.5941 82.5197 26.4284 82.0167 26.4284 81.3727V77.8997H27.7139V81.1739C27.7139 81.5195 27.8074 81.7941 27.9944 81.9977C28.1838 82.2013 28.4336 82.3031 28.7437 82.3031C28.8881 82.3031 29.0278 82.2771 29.1628 82.225C29.3001 82.1705 29.4244 82.0936 29.5356 81.9942C29.6469 81.8947 29.7357 81.7645 29.802 81.6035C29.8706 81.4402 29.905 81.2591 29.905 81.0602ZM32.3124 83.3542V77.8997H33.5588V78.8088H33.6156C33.7127 78.4963 33.882 78.2536 34.1235 78.0808C34.3649 77.908 34.6443 77.8216 34.9615 77.8216C35.1391 77.8216 35.293 77.8334 35.4232 77.8571V79.0396C35.2693 78.9899 35.0704 78.965 34.8266 78.965C34.4715 78.965 34.1779 79.0763 33.9459 79.2989C33.7139 79.519 33.5979 79.8019 33.5979 80.1476V83.3542H32.3124ZM39.6432 80.1582V83.3542H38.3577V76.0815H39.6148V78.8265H39.6787C39.8089 78.5093 40.009 78.2643 40.2789 78.0915C40.5511 77.9163 40.892 77.8287 41.3016 77.8287C41.8769 77.8287 42.3338 78.0086 42.6723 78.3685C43.0109 78.7283 43.1801 79.2326 43.1801 79.8812V83.3542H41.8946V80.0801C41.8946 79.7131 41.7999 79.4279 41.6105 79.2243C41.4235 79.0183 41.1607 78.9153 40.8222 78.9153C40.4694 78.9153 40.1842 79.0266 39.9664 79.2491C39.7509 79.4693 39.6432 79.7723 39.6432 80.1582ZM48.0512 83.1128C47.6558 83.3448 47.1953 83.4608 46.6698 83.4608C46.1442 83.4608 45.6825 83.3448 45.2848 83.1128C44.8895 82.8784 44.5852 82.5493 44.3722 82.1256C44.1615 81.6994 44.0561 81.207 44.0561 80.6483C44.0561 80.0896 44.1615 79.5971 44.3722 79.171C44.5852 78.7449 44.8895 78.4146 45.2848 78.1802C45.6825 77.9459 46.1442 77.8287 46.6698 77.8287C47.1953 77.8287 47.6558 77.9459 48.0512 78.1802C48.4489 78.4146 48.7531 78.7449 48.9638 79.171C49.1769 79.5971 49.2834 80.0896 49.2834 80.6483C49.2834 81.207 49.1769 81.6994 48.9638 82.1256C48.7531 82.5493 48.4489 82.8784 48.0512 83.1128ZM46.6769 82.431C46.9586 82.431 47.1989 82.3505 47.3977 82.1895C47.5966 82.0285 47.7434 81.8166 47.8381 81.5538C47.9328 81.2887 47.9801 80.9856 47.9801 80.6447C47.9801 80.3038 47.9328 80.0008 47.8381 79.7356C47.7458 79.4705 47.599 79.2562 47.3977 79.0929C47.1989 78.9295 46.9586 78.8479 46.6769 78.8479C46.4614 78.8479 46.2685 78.8952 46.098 78.9899C45.9299 79.0822 45.7926 79.2101 45.6861 79.3734C45.5796 79.5368 45.4979 79.7262 45.4411 79.9416C45.3866 80.157 45.3594 80.3914 45.3594 80.6447C45.3594 80.9856 45.4067 81.2887 45.5014 81.5538C45.5961 81.8166 45.7441 82.0285 45.9453 82.1895C46.1466 82.3505 46.3904 82.431 46.6769 82.431ZM51.46 76.0815V83.3542H50.1745V76.0815H51.46ZM54.6061 83.4501C54.2841 83.4501 53.9858 83.3874 53.7112 83.2619C53.4389 83.1341 53.2022 82.953 53.0009 82.7186C52.7997 82.4842 52.6423 82.1883 52.5286 81.8308C52.415 81.4733 52.3582 81.0744 52.3582 80.6341C52.3582 80.1914 52.4162 79.7913 52.5322 79.4338C52.6482 79.0739 52.808 78.778 53.0116 78.546C53.2152 78.314 53.4531 78.1364 53.7254 78.0133C53.9976 77.8902 54.2924 77.8287 54.6096 77.8287C55.3269 77.8287 55.8466 78.153 56.1686 78.8017H56.2218V76.0815H57.5109V83.3542H56.2467V82.4949H56.1686C55.8442 83.1317 55.3234 83.4501 54.6061 83.4501ZM54.9647 82.3954C55.3695 82.3954 55.6844 82.2356 55.9093 81.916C56.1342 81.5941 56.2467 81.1644 56.2467 80.627C56.2467 80.0896 56.1342 79.6646 55.9093 79.3521C55.6868 79.0396 55.3719 78.8834 54.9647 78.8834C54.6854 78.8834 54.4474 78.9591 54.2509 79.1106C54.0544 79.2598 53.9077 79.4646 53.8106 79.725C53.7159 79.983 53.6686 80.2837 53.6686 80.627C53.6686 81.1549 53.781 81.5822 54.0059 81.9089C54.2332 82.2333 54.5528 82.3954 54.9647 82.3954ZM58.6807 83.3542V77.8997H59.9662V83.3542H58.6807ZM59.327 77.1256C59.1211 77.1256 58.9447 77.0581 58.7979 76.9231C58.6535 76.7858 58.5813 76.6213 58.5813 76.4295C58.5813 76.2354 58.6535 76.0709 58.7979 75.9359C58.9447 75.7986 59.1211 75.73 59.327 75.73C59.5306 75.73 59.7046 75.7986 59.8491 75.9359C59.9958 76.0709 60.0692 76.2354 60.0692 76.4295C60.0692 76.6213 59.9958 76.7858 59.8491 76.9231C59.7046 77.0581 59.5306 77.1256 59.327 77.1256ZM62.3737 80.1582V83.3542H61.0882V77.8997H62.3168V78.8265H62.3808C62.5086 78.514 62.711 78.2702 62.988 78.095C63.2674 77.9175 63.6071 77.8287 64.0072 77.8287C64.5777 77.8287 65.0323 78.0098 65.3708 78.372C65.7094 78.7342 65.8775 79.2373 65.8751 79.8812V83.3542H64.5896V80.0801C64.5896 79.7155 64.4949 79.4302 64.3055 79.2243C64.1185 79.0183 63.8592 78.9153 63.5278 78.9153C63.1821 78.9153 62.9028 79.0254 62.6897 79.2456C62.479 79.4658 62.3737 79.77 62.3737 80.1582ZM69.3541 85.492C68.6959 85.492 68.1609 85.3654 67.7489 85.1121C67.3394 84.8587 67.0719 84.5332 66.9464 84.1355L68.1041 83.855C68.3361 84.2977 68.7598 84.519 69.3754 84.519C69.7613 84.519 70.0678 84.4267 70.2951 84.242C70.5248 84.0597 70.6396 83.7816 70.6396 83.4075V82.3741H70.5757C70.5188 82.4878 70.4514 82.5931 70.3732 82.6902C70.2951 82.7849 70.1945 82.8796 70.0714 82.9743C69.9483 83.0666 69.7956 83.14 69.6133 83.1944C69.431 83.2489 69.2286 83.2761 69.0061 83.2761C68.6888 83.2761 68.3941 83.2205 68.1218 83.1092C67.8519 82.9956 67.6152 82.831 67.4116 82.6156C67.208 82.3978 67.0482 82.1173 66.9322 81.774C66.8162 81.4307 66.7582 81.0425 66.7582 80.6092C66.7582 80.1712 66.8162 79.7759 66.9322 79.4231C67.0482 79.068 67.208 78.7756 67.4116 78.546C67.6152 78.314 67.8531 78.1364 68.1254 78.0133C68.3976 77.8902 68.6924 77.8287 69.0096 77.8287C69.7317 77.8287 70.2537 78.153 70.5757 78.8017H70.6467V77.8997H71.9144V83.443C71.9144 83.7792 71.8505 84.0787 71.7227 84.3415C71.5948 84.6042 71.4161 84.8185 71.1864 84.9842C70.9568 85.1499 70.6869 85.2754 70.3768 85.3606C70.0667 85.4482 69.7257 85.492 69.3541 85.492ZM69.3647 82.2676C69.7719 82.2676 70.0868 82.1208 70.3093 81.8273C70.5342 81.5337 70.6467 81.1253 70.6467 80.6021C70.6467 80.0765 70.5342 79.6587 70.3093 79.3486C70.0868 79.0384 69.7719 78.8834 69.3647 78.8834C68.9504 78.8834 68.6308 79.042 68.4059 79.3592C68.181 79.6741 68.0686 80.0884 68.0686 80.6021C68.0686 81.1158 68.1798 81.5219 68.4024 81.8202C68.6273 82.1185 68.948 82.2676 69.3647 82.2676ZM77.343 79.3415L76.1711 79.4693C76.1167 79.2728 76.0042 79.1106 75.8337 78.9828C75.6657 78.8526 75.4431 78.7875 75.1661 78.7875C74.8962 78.7875 74.6713 78.8467 74.4914 78.965C74.3115 79.081 74.2227 79.2302 74.2251 79.4125C74.2227 79.5711 74.2819 79.7013 74.4026 79.8031C74.5234 79.9025 74.7211 79.983 74.9957 80.0446L75.9261 80.2435C76.4422 80.3547 76.8257 80.5323 77.0766 80.7761C77.33 81.0176 77.4578 81.3325 77.4602 81.7207C77.4578 82.2368 77.24 82.6559 76.8068 82.9778C76.3735 83.2998 75.8148 83.4608 75.1306 83.4608C74.4654 83.4608 73.9292 83.3211 73.522 83.0417C73.1148 82.7624 72.8709 82.3706 72.7904 81.8663L74.044 81.7456C74.0984 81.9894 74.218 82.1753 74.4026 82.3031C74.5897 82.4286 74.8311 82.4913 75.1271 82.4913C75.4277 82.4913 75.6716 82.4298 75.8586 82.3067C76.048 82.1836 76.1427 82.0273 76.1427 81.8379C76.1427 81.5325 75.8977 81.3254 75.4076 81.2165L74.4772 81.0212C73.4498 80.8081 72.9384 80.2955 72.9431 79.4835C72.9431 79.1521 73.0343 78.8609 73.2166 78.6099C73.4012 78.359 73.6605 78.166 73.9943 78.0311C74.3281 77.8962 74.7128 77.8287 75.1484 77.8287C75.7734 77.8287 76.2729 77.9624 76.647 78.23C77.021 78.4975 77.253 78.868 77.343 79.3415ZM79.1121 83.4324C78.8943 83.4324 78.7084 83.3566 78.5546 83.2051C78.403 83.0512 78.3285 82.8666 78.3308 82.6511C78.3285 82.4381 78.403 82.2558 78.5546 82.1042C78.7084 81.9527 78.8943 81.877 79.1121 81.877C79.3228 81.877 79.5051 81.9527 79.659 82.1042C79.8128 82.2558 79.891 82.4381 79.8933 82.6511C79.891 82.8666 79.8128 83.0512 79.659 83.2051C79.5051 83.3566 79.3228 83.4324 79.1121 83.4324ZM79.1121 79.5368C78.8943 79.5368 78.7084 79.461 78.5546 79.3095C78.403 79.1556 78.3285 78.971 78.3308 78.7555C78.3285 78.5425 78.403 78.3602 78.5546 78.2087C78.7084 78.0571 78.8943 77.9814 79.1121 77.9814C79.3228 77.9814 79.5051 78.0571 79.659 78.2087C79.8128 78.3602 79.891 78.5425 79.8933 78.7555C79.891 78.971 79.8128 79.1556 79.659 79.3095C79.5051 79.461 79.3228 79.5368 79.1121 79.5368ZM16.9207 96.2633L17.0344 87.1724H17.9577L17.844 96.2633H16.9207ZM18.54 90.2619C18.5164 90.0015 18.411 89.7991 18.224 89.6547C18.0393 89.5079 17.7754 89.4345 17.4321 89.4345C17.2048 89.4345 17.0154 89.4641 16.8639 89.5233C16.7124 89.5825 16.5987 89.6641 16.523 89.7683C16.4472 89.8701 16.4082 89.9873 16.4058 90.1199C16.4011 90.2288 16.4224 90.3247 16.4697 90.4075C16.5194 90.4904 16.5905 90.5638 16.6828 90.6277C16.7775 90.6892 16.8911 90.7437 17.0237 90.791C17.1563 90.8384 17.3054 90.8798 17.4711 90.9153L18.0961 91.0574C18.456 91.1355 18.7732 91.2397 19.0478 91.3699C19.3248 91.5001 19.5568 91.6551 19.7439 91.8351C19.9333 92.015 20.0765 92.2221 20.1736 92.4565C20.2706 92.6909 20.3203 92.9537 20.3227 93.2449C20.3203 93.7042 20.2043 94.0983 19.9747 94.4274C19.7451 94.7565 19.4148 95.0086 18.9839 95.1838C18.5554 95.359 18.0381 95.4466 17.4321 95.4466C16.8237 95.4466 16.2934 95.3554 15.8412 95.1731C15.389 94.9908 15.0374 94.7139 14.7865 94.3422C14.5355 93.9705 14.4065 93.5006 14.3994 92.9324H16.0827C16.0969 93.1667 16.1596 93.3621 16.2709 93.5183C16.3821 93.6746 16.5348 93.7929 16.729 93.8734C16.9255 93.9539 17.1527 93.9942 17.4108 93.9942C17.6475 93.9942 17.8487 93.9622 18.0145 93.8983C18.1826 93.8344 18.3116 93.7456 18.4015 93.6319C18.4915 93.5183 18.5377 93.3881 18.54 93.2413C18.5377 93.104 18.4951 92.9868 18.4122 92.8898C18.3293 92.7903 18.2015 92.7051 18.0287 92.6341C17.8582 92.5607 17.6404 92.4932 17.3753 92.4317L16.6153 92.2541C15.9856 92.1097 15.4896 91.8765 15.1274 91.5545C14.7652 91.2302 14.5853 90.7922 14.5876 90.2406C14.5853 89.7908 14.706 89.3966 14.9498 89.0581C15.1937 88.7195 15.531 88.4556 15.9619 88.2662C16.3928 88.0768 16.884 87.9821 17.4356 87.9821C17.9991 87.9821 18.488 88.078 18.9023 88.2697C19.3189 88.4591 19.6421 88.7255 19.8717 89.0687C20.1014 89.412 20.2185 89.8097 20.2233 90.2619H18.54ZM24.3592 88.0815V95.3542H22.605V89.7221H22.5623L20.9359 90.7165V89.1966L22.7292 88.0815H24.3592ZM25.767 95.3542V94.09L28.4197 91.7676C28.6186 91.5877 28.7878 91.4231 28.9275 91.274C29.0672 91.1225 29.1737 90.971 29.2471 90.8194C29.3205 90.6656 29.3572 90.4987 29.3572 90.3187C29.3572 90.1175 29.3134 89.9459 29.2258 89.8038C29.1382 89.6594 29.0175 89.5481 28.8636 89.47C28.7097 89.3919 28.5333 89.3528 28.3345 89.3528C28.1332 89.3528 27.9569 89.3943 27.8053 89.4771C27.6538 89.5576 27.5355 89.6748 27.4502 89.8287C27.3674 89.9826 27.3259 90.1696 27.3259 90.3898H25.6605C25.6605 89.895 25.7717 89.4676 25.9943 89.1078C26.2168 88.748 26.5293 88.471 26.9318 88.2768C27.3366 88.0803 27.8065 87.9821 28.3416 87.9821C28.8932 87.9821 29.3726 88.0744 29.7798 88.2591C30.187 88.4437 30.5018 88.7018 30.7244 89.0332C30.9493 89.3623 31.0617 89.7446 31.0617 90.1802C31.0617 90.4572 31.0061 90.7319 30.8948 91.0041C30.7836 91.2764 30.5835 91.577 30.2947 91.9061C30.0082 92.2352 29.601 92.6293 29.0731 93.0886L28.2031 93.8912V93.9373H31.1505V95.3542H25.767ZM34.728 95.4537C34.1977 95.4537 33.7266 95.3578 33.3147 95.166C32.9027 94.9743 32.5772 94.7103 32.3381 94.3741C32.1014 94.038 31.9783 93.6521 31.9688 93.2165H33.6733C33.6876 93.484 33.7965 93.6994 34.0001 93.8628C34.2036 94.0238 34.4463 94.1042 34.728 94.1042C34.9482 94.1042 35.1435 94.0557 35.314 93.9587C35.4844 93.8616 35.6182 93.7255 35.7152 93.5503C35.8123 93.3727 35.8597 93.1691 35.8573 92.9395C35.8597 92.7051 35.8111 92.5003 35.7117 92.3251C35.6146 92.1499 35.4797 92.0138 35.3069 91.9167C35.1364 91.8173 34.9399 91.7676 34.7174 91.7676C34.5067 91.7652 34.3066 91.8114 34.1172 91.9061C33.9302 92.0008 33.7882 92.1298 33.6911 92.2932L32.1393 92.002L32.4553 88.0815H37.1215V89.4984H33.9006L33.7337 91.2136H33.7763C33.8971 91.0124 34.0912 90.8467 34.3587 90.7165C34.6286 90.5839 34.9352 90.5176 35.2785 90.5176C35.7141 90.5176 36.1023 90.6194 36.4432 90.823C36.7865 91.0242 37.0564 91.3036 37.2529 91.6611C37.4518 92.0185 37.5512 92.4281 37.5512 92.8898C37.5512 93.3893 37.4328 93.832 37.1961 94.2179C36.9617 94.6038 36.6326 94.9068 36.2089 95.127C35.7875 95.3448 35.2938 95.4537 34.728 95.4537ZM39.8876 94.3599L39.8556 94.7541C39.8272 95.0808 39.7692 95.3992 39.6816 95.7094C39.5964 96.0219 39.5052 96.3024 39.4082 96.551C39.3111 96.7996 39.2342 96.9925 39.1774 97.1298H38.0836C38.1215 96.9925 38.1724 96.7996 38.2363 96.551C38.3026 96.3024 38.3641 96.0219 38.421 95.7094C38.4778 95.3969 38.5097 95.0796 38.5168 94.7577L38.524 94.3599H39.8876ZM41.0068 95.3542V94.09L43.6595 91.7676C43.8584 91.5877 44.0277 91.4231 44.1673 91.274C44.307 91.1225 44.4136 90.971 44.4869 90.8194C44.5603 90.6656 44.597 90.4987 44.597 90.3187C44.597 90.1175 44.5532 89.9459 44.4656 89.8038C44.378 89.6594 44.2573 89.5481 44.1034 89.47C43.9495 89.3919 43.7732 89.3528 43.5743 89.3528C43.3731 89.3528 43.1967 89.3943 43.0452 89.4771C42.8937 89.5576 42.7753 89.6748 42.6901 89.8287C42.6072 89.9826 42.5658 90.1696 42.5658 90.3898H40.9003C40.9003 89.895 41.0116 89.4676 41.2341 89.1078C41.4566 88.748 41.7691 88.471 42.1716 88.2768C42.5764 88.0803 43.0464 87.9821 43.5814 87.9821C44.133 87.9821 44.6124 88.0744 45.0196 88.2591C45.4268 88.4437 45.7417 88.7018 45.9642 89.0332C46.1891 89.3623 46.3016 89.7446 46.3016 90.1802C46.3016 90.4572 46.2459 90.7319 46.1347 91.0041C46.0234 91.2764 45.8234 91.577 45.5345 91.9061C45.2481 92.2352 44.8409 92.6293 44.3129 93.0886L43.4429 93.8912V93.9373H46.3904V95.3542H41.0068ZM49.9217 87.9572C50.3194 87.9572 50.6994 88.0223 51.0616 88.1525C51.4238 88.2804 51.747 88.4864 52.0311 88.7704C52.3152 89.0522 52.5389 89.4239 52.7023 89.8855C52.8656 90.3448 52.9473 90.9059 52.9473 91.5687C52.9473 92.1748 52.8739 92.7181 52.7271 93.1987C52.5827 93.6769 52.3767 94.0841 52.1092 94.4203C51.8441 94.7565 51.5233 95.0133 51.1469 95.1909C50.7704 95.3661 50.3502 95.4537 49.8862 95.4537C49.3748 95.4537 48.9238 95.3554 48.5332 95.1589C48.145 94.9601 47.8336 94.6926 47.5993 94.3564C47.3673 94.0202 47.2288 93.6438 47.1838 93.2271H48.9132C48.9676 93.4686 49.0825 93.6509 49.2576 93.774C49.4328 93.8947 49.6424 93.9551 49.8862 93.9551C50.3313 93.9551 50.6639 93.7622 50.8841 93.3763C51.1042 92.9904 51.2143 92.466 51.2143 91.8031H51.1717C51.0699 92.0209 50.9255 92.2079 50.7385 92.3642C50.5538 92.5204 50.3396 92.64 50.0957 92.7229C49.8519 92.8057 49.595 92.8471 49.3251 92.8471C48.8895 92.8471 48.5048 92.7477 48.171 92.5489C47.8372 92.35 47.5756 92.0754 47.3862 91.725C47.1968 91.3746 47.1033 90.9745 47.1057 90.5247C47.1033 90.0181 47.2205 89.5718 47.4572 89.1859C47.694 88.8 48.0242 88.4982 48.448 88.2804C48.8718 88.0626 49.363 87.9549 49.9217 87.9572ZM49.9324 89.3067C49.7146 89.3067 49.5204 89.3576 49.35 89.4594C49.1819 89.5612 49.0493 89.6997 48.9523 89.8748C48.8552 90.05 48.8078 90.2477 48.8102 90.4679C48.8078 90.6881 48.854 90.8857 48.9487 91.0609C49.0458 91.2337 49.1783 91.3711 49.3464 91.4729C49.5169 91.5747 49.7098 91.6256 49.9253 91.6256C50.0862 91.6256 50.2342 91.596 50.3692 91.5368C50.5065 91.4752 50.626 91.3924 50.7278 91.2882C50.8296 91.184 50.9089 91.0621 50.9657 90.9224C51.0226 90.7804 51.0522 90.6277 51.0545 90.4643C51.0522 90.2489 51.0024 90.0536 50.9054 89.8784C50.8083 89.7032 50.6746 89.5647 50.5041 89.4629C50.336 89.3587 50.1454 89.3067 49.9324 89.3067ZM56.4502 87.9572C56.848 87.9572 57.2279 88.0223 57.5901 88.1525C57.9524 88.2804 58.2755 88.4864 58.5596 88.7704C58.8437 89.0522 59.0674 89.4239 59.2308 89.8855C59.3941 90.3448 59.4758 90.9059 59.4758 91.5687C59.4758 92.1748 59.4024 92.7181 59.2556 93.1987C59.1112 93.6769 58.9052 94.0841 58.6377 94.4203C58.3726 94.7565 58.0518 95.0133 57.6754 95.1909C57.2989 95.3661 56.8787 95.4537 56.4147 95.4537C55.9034 95.4537 55.4524 95.3554 55.0617 95.1589C54.6735 94.9601 54.3622 94.6926 54.1278 94.3564C53.8958 94.0202 53.7573 93.6438 53.7123 93.2271H55.4417C55.4962 93.4686 55.611 93.6509 55.7862 93.774C55.9614 93.8947 56.1709 93.9551 56.4147 93.9551C56.8598 93.9551 57.1924 93.7622 57.4126 93.3763C57.6328 92.9904 57.7428 92.466 57.7428 91.8031H57.7002C57.5984 92.0209 57.454 92.2079 57.267 92.3642C57.0823 92.5204 56.8681 92.64 56.6242 92.7229C56.3804 92.8057 56.1235 92.8471 55.8536 92.8471C55.418 92.8471 55.0333 92.7477 54.6995 92.5489C54.3657 92.35 54.1041 92.0754 53.9147 91.725C53.7253 91.3746 53.6318 90.9745 53.6342 90.5247C53.6318 90.0181 53.749 89.5718 53.9857 89.1859C54.2225 88.8 54.5527 88.4982 54.9765 88.2804C55.4003 88.0626 55.8915 87.9549 56.4502 87.9572ZM56.4609 89.3067C56.2431 89.3067 56.0489 89.3576 55.8785 89.4594C55.7104 89.5612 55.5778 89.6997 55.4808 89.8748C55.3837 90.05 55.3364 90.2477 55.3387 90.4679C55.3364 90.6881 55.3825 90.8857 55.4772 91.0609C55.5743 91.2337 55.7069 91.3711 55.8749 91.4729C56.0454 91.5747 56.2383 91.6256 56.4538 91.6256C56.6148 91.6256 56.7627 91.596 56.8977 91.5368C57.035 91.4752 57.1545 91.3924 57.2563 91.2882C57.3581 91.184 57.4374 91.0621 57.4943 90.9224C57.5511 90.7804 57.5807 90.6277 57.583 90.4643C57.5807 90.2489 57.531 90.0536 57.4339 89.8784C57.3368 89.7032 57.2031 89.5647 57.0326 89.4629C56.8645 89.3587 56.6739 89.3067 56.4609 89.3067Z" fill="#1F1E1E"/>
<path d="M86.1222 80.9491V80.1892H85.3622V79.7432H86.1222V78.9832H86.5682V79.7432H87.3281V80.1892H86.5682V80.9491H86.1222ZM88.904 81.4548C88.6957 81.4548 88.5087 81.4198 88.3429 81.3497C88.1782 81.2787 88.0499 81.1811 87.958 81.0571C87.8671 80.9321 87.8216 80.7915 87.8216 80.6352C87.8207 80.4553 87.8785 80.2967 87.9949 80.1594C88.1114 80.022 88.2563 79.9392 88.4296 79.9108V79.8909C88.28 79.8587 88.1588 79.7829 88.066 79.6636C87.9741 79.5434 87.9286 79.4041 87.9296 79.246C87.9296 79.0983 87.9713 78.9652 88.0546 78.8469C88.1379 78.7275 88.2539 78.6343 88.4026 78.567C88.5513 78.4998 88.7184 78.4662 88.904 78.4662C89.0423 78.4662 89.1715 78.4861 89.2918 78.5258C89.4121 78.5656 89.5148 78.6201 89.6 78.6892C89.6862 78.7574 89.7539 78.8398 89.8032 78.9363C89.8524 79.0329 89.877 79.1362 89.877 79.246C89.8761 79.4041 89.8292 79.5434 89.7364 79.6636C89.6436 79.7829 89.5238 79.8587 89.377 79.8909V79.9108C89.5475 79.9392 89.691 80.022 89.8074 80.1594C89.9249 80.2967 89.984 80.4553 89.985 80.6352C89.984 80.872 89.8818 81.068 89.6782 81.2233C89.4755 81.3776 89.2175 81.4548 88.904 81.4548ZM88.904 81.0486C89.066 81.0486 89.1957 81.0074 89.2932 80.925C89.3917 80.8416 89.4419 80.7327 89.4438 80.5983C89.4428 80.46 89.3912 80.3464 89.289 80.2574C89.1876 80.1674 89.0593 80.1224 88.904 80.1224C88.7468 80.1224 88.6171 80.1674 88.5148 80.2574C88.4135 80.3464 88.3633 80.46 88.3642 80.5983C88.3624 80.7327 88.4106 80.8416 88.5091 80.925C88.6086 81.0074 88.7402 81.0486 88.904 81.0486ZM88.904 79.7233C89.0375 79.7233 89.1474 79.684 89.2336 79.6054C89.3197 79.5258 89.3633 79.4226 89.3642 79.2957C89.3633 79.1707 89.3202 79.0699 89.235 78.9932C89.1498 78.9165 89.0394 78.8781 88.904 78.8781C88.7658 78.8781 88.654 78.9165 88.5688 78.9932C88.4845 79.0699 88.4428 79.1707 88.4438 79.2957C88.4428 79.4217 88.4855 79.5244 88.5716 79.604C88.6578 79.6835 88.7686 79.7233 88.904 79.7233ZM90.6085 81.4463C90.5213 81.4463 90.447 81.416 90.3855 81.3554C90.3248 81.2938 90.295 81.22 90.296 81.1338C90.295 81.0486 90.3248 80.9756 90.3855 80.915C90.447 80.8544 90.5213 80.8241 90.6085 80.8241C90.6927 80.8241 90.7657 80.8544 90.8272 80.915C90.8888 80.9756 90.92 81.0486 90.921 81.1338C90.92 81.22 90.8888 81.2938 90.8272 81.3554C90.7657 81.416 90.6927 81.4463 90.6085 81.4463ZM92.3424 81.4548C92.1549 81.4548 91.9854 81.4193 91.8339 81.3483C91.6833 81.2773 91.564 81.1788 91.4759 81.0528C91.3888 80.9259 91.3429 80.7829 91.3381 80.6238H91.8495C91.859 80.7422 91.9101 80.8393 92.0029 80.915C92.0966 80.9908 92.2098 81.0287 92.3424 81.0287C92.4986 81.0287 92.627 80.9766 92.7273 80.8724C92.8277 80.7673 92.8774 80.6338 92.8765 80.4719C92.8774 80.3071 92.8263 80.1717 92.7231 80.0656C92.6198 79.9595 92.4882 79.906 92.3282 79.9051C92.2411 79.9041 92.1554 79.9202 92.0711 79.9534C91.9868 79.9865 91.92 80.0301 91.8708 80.0841L91.3949 80.0059L91.5469 78.5059H93.2344V78.9463H91.983L91.8992 79.7176H91.9163C91.9721 79.6523 92.0493 79.5992 92.1478 79.5585C92.2472 79.5168 92.3542 79.496 92.4688 79.496C92.5995 79.496 92.7212 79.5202 92.8339 79.5684C92.9475 79.6167 93.0446 79.683 93.1251 79.7673C93.2065 79.8516 93.2704 79.9534 93.3168 80.0727C93.3632 80.192 93.3864 80.3208 93.3864 80.4591C93.3864 80.6494 93.3424 80.8203 93.2543 80.9719C93.1663 81.1234 93.0427 81.2417 92.8836 81.327C92.7245 81.4122 92.5441 81.4548 92.3424 81.4548ZM95.3377 80.8696V80.7162C95.3386 80.6016 95.3623 80.4974 95.4087 80.4037C95.4551 80.3099 95.5256 80.2342 95.6203 80.1764C95.715 80.1186 95.8258 80.0898 95.9527 80.0898C96.0512 80.0898 96.1398 80.1063 96.2184 80.1395C96.2979 80.1726 96.3628 80.2181 96.413 80.2758C96.4631 80.3327 96.5015 80.3989 96.528 80.4747C96.5545 80.5495 96.5678 80.63 96.5678 80.7162V80.8696C96.5678 80.9548 96.5541 81.0353 96.5266 81.1111C96.5001 81.1859 96.4613 81.2522 96.4101 81.3099C96.3599 81.3667 96.2951 81.4117 96.2155 81.4449C96.1369 81.479 96.0493 81.496 95.9527 81.496C95.8239 81.496 95.7122 81.4671 95.6175 81.4094C95.5228 81.3506 95.4527 81.2749 95.4073 81.1821C95.3618 81.0883 95.3386 80.9842 95.3377 80.8696ZM93.859 79.2048V79.0514C93.859 78.9662 93.8727 78.8857 93.9002 78.8099C93.9286 78.7342 93.9684 78.6679 94.0195 78.6111C94.0706 78.5533 94.1355 78.5078 94.2141 78.4747C94.2927 78.4416 94.3798 78.425 94.4755 78.425C94.573 78.425 94.6611 78.4416 94.7397 78.4747C94.8192 78.5078 94.8841 78.5533 94.9343 78.6111C94.9845 78.6679 95.0228 78.7342 95.0493 78.8099C95.0758 78.8847 95.0891 78.9652 95.0891 79.0514V79.2048C95.0891 79.291 95.0754 79.3715 95.0479 79.4463C95.0214 79.5211 94.9826 79.5874 94.9314 79.6452C94.8812 79.702 94.8168 79.747 94.7382 79.7801C94.6596 79.8123 94.572 79.8284 94.4755 79.8284C94.2832 79.8284 94.1327 79.7687 94.0238 79.6494C93.9148 79.5301 93.8599 79.3819 93.859 79.2048ZM93.9868 81.415L95.9868 78.5059H96.3434L94.3434 81.415H93.9868ZM95.7084 80.7162V80.8696C95.7094 80.9236 95.7169 80.9719 95.7311 81.0145C95.7453 81.0571 95.7714 81.0935 95.8093 81.1238C95.8471 81.1541 95.895 81.1693 95.9527 81.1693C96.037 81.1693 96.0986 81.1409 96.1374 81.0841C96.1762 81.0263 96.1952 80.9548 96.1942 80.8696V80.7162C96.1952 80.63 96.1767 80.558 96.1388 80.5003C96.1009 80.4425 96.0389 80.4136 95.9527 80.4136C95.8959 80.4136 95.8486 80.4288 95.8107 80.4591C95.7728 80.4894 95.7463 80.5263 95.7311 80.5699C95.7169 80.6134 95.7094 80.6622 95.7084 80.7162ZM94.2326 79.0514V79.2048C94.2335 79.29 94.2529 79.3615 94.2908 79.4193C94.3296 79.4761 94.3912 79.5045 94.4755 79.5045C94.5597 79.5045 94.6208 79.4761 94.6587 79.4193C94.6975 79.3615 94.7165 79.29 94.7155 79.2048V79.0514C94.7165 78.9652 94.698 78.8933 94.6601 78.8355C94.6232 78.7777 94.5616 78.7488 94.4755 78.7488C94.3921 78.7488 94.331 78.7782 94.2922 78.8369C94.2534 78.8947 94.2335 78.9662 94.2326 79.0514Z" fill="#6FA52B"/>
<rect x="84.5" y="76.9246" width="13" height="5.93303" rx="1.5" stroke="#6FA52B"/>
<defs>
<filter id="filter0_d" x="68.957" y="23.8086" width="189.043" height="186.631" filterUnits="userSpaceOnUse" color-interpolation-filters="sRGB">
<feFlood flood-opacity="0" result="BackgroundImageFix"/>
<feColorMatrix in="SourceAlpha" type="matrix" values="0 0 0 0 0 0 0 0 0 0 0 0 0 0 0 0 0 0 127 0"/>
<feOffset dy="26"/>
<feGaussianBlur stdDeviation="27.5"/>
<feColorMatrix type="matrix" values="0 0 0 0 0 0 0 0 0 0 0 0 0 0 0 0 0 0 0.13 0"/>
<feBlend mode="normal" in2="BackgroundImageFix" result="effect1_dropShadow"/>
<feBlend mode="normal" in="SourceGraphic" in2="effect1_dropShadow" result="shape"/>
</filter>
</defs>
</svg>
